<svg width="837" height="307" viewBox="0 0 837 307" fill="none" xmlns="http://www.w3.org/2000/svg">
<g clip-path="url(#clip0_66_2)">
<path d="M101.881 226.206C98.7705 226.206 95.8961 225.452 93.2572 223.944C90.7126 222.436 88.6863 220.41 87.1784 217.865C85.6705 215.226 84.9166 212.352 84.9166 209.242V141.385C84.9166 138.275 85.6705 135.448 87.1784 132.903C88.6863 130.265 90.7126 128.191 93.2572 126.683C95.8961 125.175 98.7705 124.421 101.881 124.421H186.418V135.872H101.881C100.373 135.872 99.0533 136.438 97.9223 137.569C96.8856 138.605 96.3673 139.878 96.3673 141.385V209.242C96.3673 210.75 96.8856 212.069 97.9223 213.2C99.0533 214.237 100.373 214.755 101.881 214.755H186.418V226.206H101.881ZM220.384 226.206C217.274 226.206 214.399 225.452 211.76 223.944C209.216 222.342 207.142 220.268 205.54 217.724C204.032 215.085 203.278 212.21 203.278 209.1V161.318C203.278 158.208 204.032 155.381 205.54 152.836C207.142 150.197 209.216 148.124 211.76 146.616C214.399 145.014 217.274 144.213 220.384 144.213H269.58C272.784 144.213 275.658 145.014 278.203 146.616C280.842 148.124 282.915 150.197 284.423 152.836C286.025 155.381 286.826 158.208 286.826 161.318V209.1C286.826 212.21 286.025 215.085 284.423 217.724C282.915 220.268 280.842 222.342 278.203 223.944C275.658 225.452 272.784 226.206 269.58 226.206H220.384ZM220.384 214.614H269.58C271.087 214.614 272.36 214.095 273.396 213.059C274.527 211.928 275.093 210.608 275.093 209.1V161.318C275.093 159.81 274.527 158.538 273.396 157.501C272.36 156.37 271.087 155.805 269.58 155.805H220.384C218.876 155.805 217.556 156.37 216.426 157.501C215.389 158.538 214.87 159.81 214.87 161.318V209.1C214.87 210.608 215.389 211.928 216.426 213.059C217.556 214.095 218.876 214.614 220.384 214.614ZM302.339 226.206V144.213H368.782C371.892 144.213 374.719 145.014 377.264 146.616C379.903 148.124 381.976 150.197 383.484 152.836C385.086 155.381 385.887 158.208 385.887 161.318V226.206H374.295V161.318C374.295 159.81 373.73 158.538 372.599 157.501C371.562 156.37 370.29 155.805 368.782 155.805H319.586C318.078 155.805 316.759 156.37 315.628 157.501C314.497 158.538 313.931 159.81 313.931 161.318V226.206H302.339ZM420.563 226.206C417.359 226.206 414.437 225.452 411.798 223.944C409.254 222.342 407.227 220.268 405.719 217.724C404.211 215.085 403.457 212.21 403.457 209.1V117.353H415.05V144.213H450.533V155.805H415.05V209.1C415.05 210.608 415.568 211.928 416.605 213.059C417.736 214.095 419.055 214.614 420.563 214.614H450.533V226.206H420.563ZM464.126 226.206V161.318C464.126 158.208 464.88 155.381 466.388 152.836C467.99 150.197 470.063 148.124 472.608 146.616C475.247 145.014 478.121 144.213 481.231 144.213H527.317V155.805H481.231C479.724 155.805 478.404 156.37 477.273 157.501C476.237 158.538 475.718 159.81 475.718 161.318V226.206H464.126ZM539.294 226.206V144.213H550.886V226.206H539.294ZM539.294 128.945V117.353H550.886V128.945H539.294ZM571.809 226.206V117.353H583.401V144.213H638.252C641.362 144.213 644.189 145.014 646.734 146.616C649.373 148.124 651.446 150.197 652.954 152.836C654.556 155.381 655.357 158.208 655.357 161.318V209.1C655.357 212.21 654.556 215.085 652.954 217.724C651.446 220.268 649.373 222.342 646.734 223.944C644.189 225.452 641.362 226.206 638.252 226.206H571.809ZM589.056 214.614H638.252C639.76 214.614 641.032 214.095 642.069 213.059C643.2 211.928 643.765 210.608 643.765 209.1V161.318C643.765 159.81 643.2 158.538 642.069 157.501C641.032 156.37 639.76 155.805 638.252 155.805H589.056C587.548 155.805 586.229 156.37 585.098 157.501C583.967 158.538 583.401 159.81 583.401 161.318V209.1C583.401 210.608 583.967 211.928 585.098 213.059C586.229 214.095 587.548 214.614 589.056 214.614ZM685.609 226.206C682.498 226.206 679.624 225.452 676.985 223.944C674.441 222.342 672.367 220.268 670.765 217.724C669.257 215.085 668.503 212.21 668.503 209.1V161.318C668.503 158.208 669.257 155.381 670.765 152.836C672.367 150.197 674.441 148.124 676.985 146.616C679.624 145.014 682.498 144.213 685.609 144.213H734.804C738.009 144.213 740.883 145.014 743.428 146.616C746.067 148.124 748.14 150.197 749.648 152.836C751.25 155.381 752.051 158.208 752.051 161.318V209.1C752.051 212.21 751.25 215.085 749.648 217.724C748.14 220.268 746.067 222.342 743.428 223.944C740.883 225.452 738.009 226.206 734.804 226.206H685.609ZM685.609 214.614H734.804C736.312 214.614 737.585 214.095 738.621 213.059C739.752 211.928 740.318 210.608 740.318 209.1V161.318C740.318 159.81 739.752 158.538 738.621 157.501C737.585 156.37 736.312 155.805 734.804 155.805H685.609C684.101 155.805 682.781 156.37 681.65 157.501C680.614 158.538 680.095 159.81 680.095 161.318V209.1C680.095 210.608 680.614 211.928 681.65 213.059C682.781 214.095 684.101 214.614 685.609 214.614Z" fill="#34495E"/>
<path d="M757.081 90.2922C757.081 110.94 738.403 127.678 715.361 127.678C692.319 127.678 673.641 110.94 673.641 90.2922C673.641 47.4105 749.272 22.231 749.272 22.231C749.272 22.231 757.081 69.6448 757.081 90.2922Z" fill="#4FC497"/>
<path d="M759.905 90.2922C759.905 69.6959 752.385 23.805 752.065 21.8616C751.941 21.1067 751.443 20.4423 750.71 20.0536C749.977 19.665 749.088 19.5937 748.289 19.8593C747.503 20.1209 728.835 26.398 709.856 38.0966C698.629 45.0173 689.663 52.4001 683.207 60.0396C674.986 69.7687 670.817 79.947 670.817 90.2922C670.817 109.638 686.256 125.811 706.671 129.443C707.663 135.082 709.033 140.3 710.75 144.972C711.141 146.036 712.245 146.711 713.431 146.711C713.724 146.711 714.022 146.67 714.315 146.583C715.796 146.146 716.601 144.716 716.113 143.389C714.641 139.381 713.436 134.929 712.519 130.125C713.459 130.178 714.406 130.208 715.361 130.208C739.923 130.208 759.905 112.302 759.905 90.2922ZM676.464 90.2922C676.464 69.2683 696.314 52.6012 712.966 42.3213C723.889 35.5779 734.912 30.6217 742.11 27.6917C736.137 35.421 724.423 51.5669 717.44 67.7133C716.877 69.0163 717.599 70.4817 719.053 70.9867C719.388 71.1031 719.733 71.1583 720.072 71.1583C721.204 71.1583 722.272 70.5442 722.705 69.5418C729.726 53.3094 742.07 36.598 747.574 29.5333C749.717 43.4484 754.258 74.7603 754.258 90.2919C754.258 109.511 736.808 125.148 715.361 125.148C693.913 125.148 676.464 109.512 676.464 90.2922Z" fill="#34495E"/>
<path d="M712.02 89.372C712.056 87.2763 712.338 84.9717 712.86 82.5221C713.152 81.1495 712.147 79.8245 710.616 79.5627C709.084 79.2998 707.606 80.2012 707.313 81.5738C706.731 84.3098 706.415 86.9077 706.374 89.2951C706.351 90.6922 707.595 91.8421 709.155 91.8633C709.169 91.8633 709.184 91.8636 709.198 91.8636C710.737 91.8639 711.997 90.7562 712.02 89.372Z" fill="#333333"/>
<path d="M90.9542 272.049V257.735H98.9238C99.3715 257.735 99.7779 257.847 100.143 258.071C100.52 258.295 100.815 258.589 101.027 258.954C101.25 259.32 101.362 259.726 101.362 260.174V265.546C101.362 265.993 101.25 266.4 101.027 266.765C100.815 267.13 100.52 267.425 100.143 267.649C99.7779 267.872 99.3715 267.984 98.9238 267.984H93.2691V272.049H90.9542ZM93.4812 265.669H98.8354C98.8943 265.669 98.9415 265.652 98.9768 265.616C99.0239 265.569 99.0475 265.516 99.0475 265.457V260.262C99.0475 260.203 99.0239 260.156 98.9768 260.121C98.9415 260.074 98.8943 260.05 98.8354 260.05H93.4812C93.4223 260.05 93.3692 260.074 93.3221 260.121C93.2868 260.156 93.2691 260.203 93.2691 260.262V265.457C93.2691 265.516 93.2868 265.569 93.3221 265.616C93.3692 265.652 93.4223 265.669 93.4812 265.669ZM105.428 267.984C104.98 267.984 104.574 267.872 104.208 267.649C103.843 267.425 103.549 267.13 103.325 266.765C103.101 266.4 102.989 265.993 102.989 265.546V260.174C102.989 259.726 103.101 259.32 103.325 258.954C103.549 258.589 103.843 258.295 104.208 258.071C104.574 257.847 104.98 257.735 105.428 257.735H110.959C111.406 257.735 111.813 257.847 112.178 258.071C112.555 258.295 112.85 258.589 113.062 258.954C113.285 259.32 113.397 259.726 113.397 260.174V265.546C113.397 265.993 113.285 266.4 113.062 266.765C112.85 267.13 112.561 267.425 112.196 267.649C111.831 267.872 111.418 267.984 110.959 267.984H105.428ZM105.516 265.669H110.87C110.929 265.669 110.976 265.652 111.012 265.616C111.059 265.569 111.082 265.516 111.082 265.457V260.262C111.082 260.203 111.059 260.156 111.012 260.121C110.976 260.074 110.929 260.05 110.87 260.05H105.516C105.457 260.05 105.404 260.074 105.357 260.121C105.322 260.156 105.304 260.203 105.304 260.262V265.457C105.304 265.516 105.322 265.569 105.357 265.616C105.404 265.652 105.457 265.669 105.516 265.669ZM118.271 267.984L114.242 257.735H116.699L119.19 263.779L121.805 257.735H124.209L127.001 263.814L129.316 257.735H131.772L127.92 267.984H126.117L123.025 261.146L120.074 267.984H118.271ZM135.454 267.984C135.006 267.984 134.6 267.872 134.235 267.649C133.869 267.425 133.575 267.13 133.351 266.765C133.127 266.4 133.015 265.993 133.015 265.546V260.174C133.015 259.726 133.127 259.32 133.351 258.954C133.575 258.589 133.869 258.295 134.235 258.071C134.6 257.847 135.006 257.735 135.454 257.735H140.985C141.432 257.735 141.839 257.847 142.204 258.071C142.581 258.295 142.876 258.589 143.088 258.954C143.311 259.32 143.423 259.726 143.423 260.174V264.026H135.33V265.457C135.33 265.516 135.348 265.569 135.383 265.616C135.43 265.652 135.483 265.669 135.542 265.669H143.423V267.984H135.454ZM135.33 261.941H141.108V260.262C141.108 260.203 141.085 260.156 141.038 260.121C141.002 260.074 140.955 260.05 140.896 260.05H135.542C135.483 260.05 135.43 260.074 135.383 260.121C135.348 260.156 135.33 260.203 135.33 260.262V261.941ZM145.518 267.984V260.174C145.518 259.726 145.63 259.32 145.854 258.954C146.077 258.589 146.372 258.295 146.737 258.071C147.114 257.847 147.52 257.735 147.956 257.735H153.646V260.05H148.045C147.986 260.05 147.933 260.074 147.886 260.121C147.85 260.156 147.833 260.203 147.833 260.262V267.984H145.518ZM157.645 267.984C157.198 267.984 156.791 267.872 156.426 267.649C156.061 267.425 155.766 267.13 155.542 266.765C155.319 266.4 155.207 265.993 155.207 265.546V260.174C155.207 259.726 155.319 259.32 155.542 258.954C155.766 258.589 156.061 258.295 156.426 258.071C156.791 257.847 157.198 257.735 157.645 257.735H163.176C163.624 257.735 164.03 257.847 164.396 258.071C164.773 258.295 165.067 258.589 165.279 258.954C165.503 259.32 165.615 259.726 165.615 260.174V264.026H157.522V265.457C157.522 265.516 157.539 265.569 157.575 265.616C157.622 265.652 157.675 265.669 157.734 265.669H165.615V267.984H157.645ZM157.522 261.941H163.3V260.262C163.3 260.203 163.276 260.156 163.229 260.121C163.194 260.074 163.147 260.05 163.088 260.05H157.734C157.675 260.05 157.622 260.074 157.575 260.121C157.539 260.156 157.522 260.203 157.522 260.262V261.941ZM169.739 267.984C169.279 267.984 168.867 267.872 168.502 267.649C168.137 267.425 167.842 267.13 167.618 266.765C167.406 266.4 167.3 265.993 167.3 265.546V260.174C167.3 259.726 167.406 259.32 167.618 258.954C167.842 258.589 168.137 258.295 168.502 258.071C168.867 257.847 169.279 257.735 169.739 257.735H175.411V254.378H177.726V267.984H169.739ZM169.845 265.669H175.199C175.258 265.669 175.305 265.652 175.341 265.616C175.388 265.569 175.411 265.516 175.411 265.457V260.262C175.411 260.203 175.388 260.156 175.341 260.121C175.305 260.074 175.258 260.05 175.199 260.05H169.845C169.786 260.05 169.733 260.074 169.686 260.121C169.651 260.156 169.633 260.203 169.633 260.262V265.457C169.633 265.516 169.651 265.569 169.686 265.616C169.733 265.652 169.786 265.669 169.845 265.669ZM185.743 267.984V254.378H188.058V257.735H193.712C194.16 257.735 194.566 257.847 194.932 258.071C195.308 258.295 195.603 258.589 195.815 258.954C196.039 259.32 196.151 259.726 196.151 260.174V265.546C196.151 265.993 196.039 266.4 195.815 266.765C195.603 267.13 195.308 267.425 194.932 267.649C194.566 267.872 194.16 267.984 193.712 267.984H185.743ZM188.27 265.669H193.624C193.683 265.669 193.73 265.652 193.765 265.616C193.812 265.569 193.836 265.516 193.836 265.457V260.262C193.836 260.203 193.812 260.156 193.765 260.121C193.73 260.074 193.683 260.05 193.624 260.05H188.27C188.211 260.05 188.158 260.074 188.111 260.121C188.075 260.156 188.058 260.203 188.058 260.262V265.457C188.058 265.516 188.075 265.569 188.111 265.616C188.158 265.652 188.211 265.669 188.27 265.669ZM199.384 271.783V269.451H205.552C205.61 269.451 205.658 269.427 205.693 269.38C205.74 269.345 205.764 269.298 205.764 269.239V267.984H200.109C199.673 267.984 199.267 267.872 198.89 267.649C198.524 267.425 198.23 267.13 198.006 266.765C197.782 266.4 197.67 265.993 197.67 265.546V257.77H199.985V265.457C199.985 265.516 200.003 265.569 200.038 265.616C200.085 265.652 200.138 265.669 200.197 265.669H205.552C205.61 265.669 205.658 265.652 205.693 265.616C205.74 265.569 205.764 265.516 205.764 265.457V257.77H208.079V269.345C208.079 269.793 207.972 270.199 207.76 270.564C207.548 270.941 207.254 271.236 206.877 271.448C206.512 271.672 206.105 271.783 205.658 271.783H199.384Z" fill="#34495E"/>
<path d="M233.958 268.218V264.817L238.473 263.703V264.105H241.133V268.218H233.958ZM220.506 268.218C219.723 268.218 219.001 268.023 218.342 267.631C217.703 267.239 217.187 266.724 216.796 266.085C216.404 265.425 216.208 264.703 216.208 263.92V250.251C216.208 249.468 216.404 248.757 216.796 248.118C217.187 247.458 217.703 246.932 218.342 246.541C219.001 246.149 219.723 245.953 220.506 245.953H234.175C234.958 245.953 235.67 246.149 236.309 246.541C236.968 246.932 237.494 247.458 237.886 248.118C238.277 248.757 238.473 249.468 238.473 250.251V263.92C238.473 264.703 238.277 265.425 237.886 266.085C237.494 266.724 236.968 267.239 236.309 267.631C235.67 268.023 234.958 268.218 234.175 268.218H220.506ZM220.661 264.105H233.958C234.061 264.105 234.154 264.075 234.237 264.013C234.319 263.93 234.36 263.837 234.36 263.734V250.437C234.36 250.334 234.319 250.251 234.237 250.19C234.154 250.107 234.061 250.066 233.958 250.066H220.661C220.558 250.066 220.465 250.107 220.383 250.19C220.321 250.251 220.29 250.334 220.29 250.437V263.734C220.29 263.837 220.321 263.93 220.383 264.013C220.465 264.075 220.558 264.105 220.661 264.105ZM244.095 268.218V250.282H248.146V268.218H244.095ZM244.095 248.489V244.407H248.146V248.489H244.095ZM252.203 268.218V254.55C252.203 253.767 252.399 253.055 252.79 252.416C253.182 251.777 253.698 251.262 254.337 250.87C254.996 250.478 255.708 250.282 256.47 250.282H266.428V254.333H256.625C256.522 254.333 256.429 254.375 256.347 254.457C256.285 254.519 256.254 254.601 256.254 254.705V268.218H252.203ZM278.095 268.218L268.231 250.282H272.9L279.982 263.301L287.033 250.282H291.702L281.806 268.218H278.095ZM297.539 268.218C296.756 268.218 296.045 268.023 295.406 267.631C294.767 267.239 294.251 266.724 293.859 266.085C293.468 265.445 293.272 264.734 293.272 263.951V254.55C293.272 253.767 293.468 253.055 293.859 252.416C294.251 251.777 294.767 251.262 295.406 250.87C296.045 250.478 296.756 250.282 297.539 250.282H307.219C308.002 250.282 308.713 250.478 309.352 250.87C310.012 251.262 310.528 251.777 310.899 252.416C311.29 253.055 311.486 253.767 311.486 254.55V261.291H297.323V263.796C297.323 263.899 297.354 263.992 297.416 264.075C297.498 264.136 297.591 264.167 297.694 264.167H311.486V268.218H297.539ZM297.323 257.642H307.435V254.705C307.435 254.601 307.394 254.519 307.311 254.457C307.25 254.375 307.167 254.333 307.064 254.333H297.694C297.591 254.333 297.498 254.375 297.416 254.457C297.354 254.519 297.323 254.601 297.323 254.705V257.642ZM314.543 268.218V267.136L321.13 259.096L314.543 251.365V250.282H318.934L323.758 255.972L328.583 250.282H332.974V251.365L326.387 259.096L332.974 267.136V268.218H328.614L323.758 262.281L318.934 268.218H314.543Z" fill="#34495E"/>
<path d="M330.252 234.538H336.017V236.305H334.272V242.269H332.019V236.305H330.252V234.538ZM337.254 234.538H340.236L342.621 240.922L341.583 240.944L344.212 234.538H346.995V242.269H344.919V235.907L345.515 235.841L342.842 242.269H341.296L338.734 235.841L339.264 235.907V242.269H337.254V234.538Z" fill="#2980B9"/>
</g>
<defs>
<clipPath id="clip0_66_2">
<rect width="837" height="307" fill="white"/>
</clipPath>
</defs>
</svg>
