<svg width="500" height="500" viewBox="0 0 500 500" fill="none" xmlns="http://www.w3.org/2000/svg">
<g clip-path="url(#clip0_62_65)">
<rect width="500" height="500" fill="white"/>
<path d="M92.1419 486C77.6296 486 64.2166 482.482 51.9031 475.446C40.0293 468.409 30.5743 458.954 23.538 447.08C16.5017 434.767 12.9835 421.354 12.9835 406.842V90.2079C12.9835 75.6955 16.5017 62.5025 23.538 50.6287C30.5743 38.3152 40.0293 28.6403 51.9031 21.6039C64.2166 14.5676 77.6296 11.0495 92.1419 11.0495H408.776C423.288 11.0495 436.481 14.5676 448.355 21.6039C460.668 28.6403 470.343 38.3152 477.38 50.6287C484.416 62.5025 487.934 75.6955 487.934 90.2079V406.842C487.934 421.354 484.416 434.767 477.38 447.08C470.343 458.954 460.668 468.409 448.355 475.446C436.481 482.482 423.288 486 408.776 486H92.1419ZM92.1419 432.568H408.776C415.812 432.568 421.749 430.149 426.586 425.312C431.863 420.035 434.502 413.878 434.502 406.842V90.2079C434.502 83.1716 431.863 77.2347 426.586 72.3973C421.749 67.12 415.812 64.4814 408.776 64.4814H92.1419C85.1056 64.4814 78.9489 67.12 73.6717 72.3973C68.8342 77.2347 66.4155 83.1716 66.4155 90.2079V406.842C66.4155 413.878 68.8342 420.035 73.6717 425.312C78.9489 430.149 85.1056 432.568 92.1419 432.568Z" fill="#34495E"/>
<path d="M362.947 290.2C362.947 346.941 312.603 392.94 250.5 392.94C188.397 392.94 138.052 346.941 138.052 290.2C138.053 172.356 341.899 103.161 341.899 103.161C341.899 103.161 362.947 233.458 362.947 290.2Z" fill="#4FC497"/>
<path d="M370.557 290.199C370.557 233.599 350.29 107.486 349.427 102.145C349.092 100.071 347.75 98.2448 345.774 97.1769C343.799 96.1089 341.402 95.9128 339.249 96.6429C337.132 97.3618 286.814 114.612 235.663 146.761C205.402 165.78 181.237 186.068 163.836 207.062C141.678 233.799 130.443 261.77 130.443 290.199C130.443 343.363 172.053 387.808 227.079 397.79C229.753 413.286 233.444 427.626 238.072 440.465C239.127 443.39 242.102 445.245 245.298 445.245C246.087 445.245 246.89 445.131 247.68 444.893C251.672 443.692 253.842 439.762 252.527 436.115C248.558 425.101 245.311 412.866 242.84 399.663C245.374 399.81 247.927 399.892 250.5 399.892C316.7 399.892 370.557 350.685 370.557 290.199ZM145.663 290.199C145.663 232.424 199.163 186.621 244.044 158.371C273.485 139.839 303.194 126.219 322.595 118.167C306.496 139.408 274.925 183.779 256.104 228.15C254.585 231.731 256.532 235.758 260.45 237.146C261.354 237.466 262.283 237.618 263.198 237.618C266.248 237.618 269.127 235.93 270.295 233.175C289.216 188.567 322.488 142.642 337.322 123.228C343.099 161.468 355.336 247.516 355.336 290.199C355.336 343.016 308.306 385.986 250.499 385.986C192.691 385.986 145.663 343.016 145.663 290.199Z" fill="#34495E"/>
<path d="M241.495 287.671C241.591 281.912 242.352 275.578 243.758 268.847C244.545 265.075 241.838 261.433 237.709 260.714C233.581 259.991 229.596 262.469 228.808 266.241C227.238 273.759 226.387 280.899 226.278 287.459C226.214 291.299 229.569 294.459 233.771 294.517C233.811 294.517 233.85 294.518 233.889 294.518C238.037 294.519 241.432 291.475 241.495 287.671Z" fill="#333333"/>
</g>
<defs>
<clipPath id="clip0_62_65">
<rect width="500" height="500" fill="white"/>
</clipPath>
</defs>
</svg>
