<svg width="500" height="500" viewBox="0 0 500 500" fill="none" xmlns="http://www.w3.org/2000/svg">
<g clip-path="url(#clip0_61_38)">
<rect width="500" height="500" fill="white"/>
<path d="M112.737 424C100.157 424 88.5311 420.95 77.8578 414.851C67.5658 408.752 59.3702 400.557 53.2712 390.265C47.1722 379.592 44.1227 367.965 44.1227 355.386V80.9307C44.1227 68.3515 47.1722 56.9158 53.2712 46.6238C59.3702 35.9505 67.5658 27.5643 77.8578 21.4653C88.5311 15.3663 100.157 12.3168 112.737 12.3168H387.192C399.771 12.3168 411.207 15.3663 421.499 21.4653C432.172 27.5643 440.558 35.9505 446.657 46.6238C452.756 56.9158 455.806 68.3515 455.806 80.9307V355.386C455.806 367.965 452.756 379.592 446.657 390.265C440.558 400.557 432.172 408.752 421.499 414.851C411.207 420.95 399.771 424 387.192 424H112.737ZM112.737 377.686H387.192C393.291 377.686 398.437 375.589 402.63 371.396C407.204 366.822 409.491 361.485 409.491 355.386V80.9307C409.491 74.8317 407.204 69.6856 402.63 65.4926C398.437 60.9183 393.291 58.6312 387.192 58.6312H112.737C106.638 58.6312 101.301 60.9183 96.7266 65.4926C92.5336 69.6856 90.437 74.8317 90.437 80.9307V355.386C90.437 361.485 92.5336 366.822 96.7266 371.396C101.301 375.589 106.638 377.686 112.737 377.686Z" fill="#34495E"/>
<path d="M347.468 254.081C347.468 303.264 303.83 343.135 250 343.135C196.169 343.135 152.531 303.264 152.531 254.081C152.532 151.936 329.224 91.9572 329.224 91.9572C329.224 91.9572 347.468 204.898 347.468 254.081Z" fill="#4FC497"/>
<path d="M354.064 254.081C354.064 205.02 336.497 95.7064 335.749 91.0773C335.459 89.2789 334.296 87.6963 332.583 86.7706C330.871 85.8449 328.793 85.6749 326.927 86.3077C325.092 86.9309 281.477 101.883 237.14 129.749C210.91 146.235 189.963 163.821 174.881 182.018C155.674 205.194 145.936 229.438 145.936 254.081C145.936 300.163 182.003 338.687 229.699 347.34C232.017 360.771 235.216 373.201 239.227 384.329C240.142 386.866 242.721 388.473 245.491 388.473C246.175 388.473 246.871 388.375 247.556 388.168C251.016 387.127 252.897 383.721 251.757 380.559C248.317 371.012 245.502 360.408 243.361 348.963C245.557 349.09 247.769 349.162 250 349.162C307.381 349.162 354.064 306.509 354.064 254.081ZM159.128 254.081C159.128 204.001 205.502 164.3 244.404 139.813C269.923 123.75 295.675 111.944 312.491 104.965C298.537 123.376 271.171 161.836 254.858 200.297C253.541 203.401 255.228 206.892 258.625 208.095C259.408 208.372 260.214 208.503 261.007 208.503C263.65 208.503 266.146 207.041 267.158 204.653C283.559 165.987 312.399 126.18 325.256 109.351C330.264 142.498 340.871 217.084 340.871 254.08C340.871 299.862 300.106 337.108 249.999 337.108C199.892 337.108 159.128 299.862 159.128 254.081Z" fill="#34495E"/>
<path d="M242.194 251.889C242.278 246.897 242.937 241.407 244.156 235.572C244.838 232.303 242.491 229.147 238.913 228.523C235.335 227.897 231.881 230.044 231.197 233.314C229.837 239.831 229.099 246.019 229.004 251.706C228.949 255.034 231.857 257.773 235.499 257.824C235.534 257.824 235.568 257.824 235.602 257.824C239.197 257.825 242.14 255.186 242.194 251.889Z" fill="#333333"/>
<path d="M69.9094 479.277C68.3999 479.277 67.0162 478.921 65.7582 478.208C64.5423 477.453 63.5569 476.468 62.8021 475.252C62.0893 473.994 61.7329 472.61 61.7329 471.101V442.169C61.7329 440.659 62.0893 439.296 62.8021 438.08C63.5569 436.822 64.5423 435.837 65.7582 435.124C67.0162 434.369 68.3999 433.992 69.9094 433.992H106.892V440.785H70.8528C70.1819 440.785 69.6159 441.015 69.1546 441.477C68.7353 441.896 68.5257 442.441 68.5257 443.112V470.157C68.5257 470.828 68.7353 471.394 69.1546 471.855C69.6159 472.275 70.1819 472.484 70.8528 472.484H106.892V479.277H69.9094ZM122.759 479.277C121.249 479.277 119.866 478.921 118.608 478.208C117.392 477.453 116.406 476.468 115.652 475.252C114.939 473.994 114.582 472.61 114.582 471.101V442.169C114.582 440.659 114.939 439.296 115.652 438.08C116.406 436.822 117.392 435.837 118.608 435.124C119.866 434.369 121.249 433.992 122.759 433.992H151.691C153.159 433.992 154.521 434.369 155.779 435.124C157.037 435.837 158.022 436.822 158.735 438.08C159.49 439.296 159.867 440.659 159.867 442.169V471.101C159.867 472.61 159.49 473.994 158.735 475.252C158.022 476.468 157.037 477.453 155.779 478.208C154.521 478.921 153.159 479.277 151.691 479.277H122.759ZM122.947 472.484H151.502C151.922 472.484 152.278 472.338 152.571 472.044C152.865 471.709 153.012 471.331 153.012 470.912V442.357C153.012 441.938 152.865 441.582 152.571 441.288C152.278 440.953 151.922 440.785 151.502 440.785H122.947C122.528 440.785 122.151 440.953 121.815 441.288C121.522 441.582 121.375 441.938 121.375 442.357V470.912C121.375 471.331 121.522 471.709 121.815 472.044C122.151 472.338 122.528 472.484 122.947 472.484ZM168.052 479.277V433.992H176.165L206.481 470.094V433.992H213.337V479.277H205.223L174.845 443.112V479.277H168.052ZM238.623 479.277V440.785H219.377V433.992H264.662V440.785H245.416V479.277H238.623ZM307.733 479.277L293.581 462.358H302.449L315.657 478.019V479.277H307.733ZM270.624 479.277V434.055H307.67C309.179 434.055 310.563 434.432 311.821 435.187C313.079 435.942 314.064 436.948 314.777 438.206C315.532 439.422 315.909 440.764 315.909 442.231V454.936C315.909 456.446 315.532 457.83 314.777 459.088C314.064 460.304 313.079 461.289 311.821 462.044C310.563 462.757 309.179 463.113 307.67 463.113L277.417 463.176V479.277H270.624ZM278.989 456.257H307.544C307.963 456.257 308.32 456.111 308.613 455.817C308.907 455.523 309.053 455.167 309.053 454.748V442.42C309.053 442.001 308.907 441.644 308.613 441.351C308.32 441.015 307.963 440.848 307.544 440.848H278.989C278.57 440.848 278.192 441.015 277.857 441.351C277.563 441.644 277.417 442.001 277.417 442.42V454.748C277.417 455.167 277.563 455.523 277.857 455.817C278.192 456.111 278.57 456.257 278.989 456.257ZM323.595 479.277V433.992H330.387V479.277H323.595ZM338.681 479.277V433.992H373.903C375.371 433.992 376.733 434.369 377.991 435.124C379.249 435.837 380.235 436.822 380.947 438.08C381.702 439.296 382.08 440.659 382.08 442.169V451.414C382.08 451.959 382.017 452.504 381.891 453.05C381.807 453.595 381.639 454.098 381.388 454.559C382.226 455.733 382.855 456.844 383.275 457.893C383.736 458.899 383.967 459.926 383.967 460.974V471.101C383.967 472.61 383.589 473.994 382.834 475.252C382.122 476.468 381.136 477.453 379.878 478.208C378.62 478.921 377.237 479.277 375.727 479.277H338.681ZM347.047 472.484H375.601C376.021 472.484 376.377 472.338 376.671 472.044C376.964 471.709 377.111 471.331 377.111 470.912V461.163C377.111 460.744 376.964 460.387 376.671 460.094C376.377 459.758 376.021 459.591 375.601 459.591H347.047C346.627 459.591 346.25 459.758 345.914 460.094C345.621 460.387 345.474 460.744 345.474 461.163V470.912C345.474 471.331 345.621 471.709 345.914 472.044C346.25 472.338 346.627 472.484 347.047 472.484ZM347.047 452.798H373.714C374.134 452.798 374.49 452.651 374.784 452.358C375.077 452.022 375.224 451.645 375.224 451.226V442.357C375.224 441.938 375.077 441.582 374.784 441.288C374.49 440.953 374.134 440.785 373.714 440.785H347.047C346.627 440.785 346.25 440.953 345.914 441.288C345.621 441.582 345.474 441.938 345.474 442.357V451.226C345.474 451.645 345.621 452.022 345.914 452.358C346.25 452.651 346.627 452.798 347.047 452.798ZM400.133 479.277C398.623 479.277 397.24 478.921 395.982 478.208C394.766 477.453 393.78 476.468 393.025 475.252C392.313 473.994 391.956 472.61 391.956 471.101V442.169C391.956 440.659 392.313 439.296 393.025 438.08C393.78 436.822 394.766 435.837 395.982 435.124C397.24 434.369 398.623 433.992 400.133 433.992H429.065C430.533 433.992 431.895 434.369 433.153 435.124C434.411 435.837 435.396 436.822 436.109 438.08C436.864 439.296 437.241 440.659 437.241 442.169V471.101C437.241 472.61 436.864 473.994 436.109 475.252C435.396 476.468 434.411 477.453 433.153 478.208C431.895 478.921 430.533 479.277 429.065 479.277H400.133ZM400.321 472.484H428.876C429.296 472.484 429.652 472.338 429.945 472.044C430.239 471.709 430.386 471.331 430.386 470.912V442.357C430.386 441.938 430.239 441.582 429.945 441.288C429.652 440.953 429.296 440.785 428.876 440.785H400.321C399.902 440.785 399.525 440.953 399.189 441.288C398.896 441.582 398.749 441.938 398.749 442.357V470.912C398.749 471.331 398.896 471.709 399.189 472.044C399.525 472.338 399.902 472.484 400.321 472.484Z" fill="#34495E"/>
</g>
<defs>
<clipPath id="clip0_61_38">
<rect width="500" height="500" fill="white"/>
</clipPath>
</defs>
</svg>
